<mxfile host="app.diagrams.net" modified="2021-10-27T13:51:03.011Z" agent="5.0 (Windows NT 10.0; Win64; x64) AppleWebKit/537.36 (KHTML, like Gecko) Chrome/95.0.4638.54 Safari/537.36" etag="iS63x4H0rCE2fHiSuq0c" version="15.6.0" type="github">
  <diagram id="2n1HFqijcw_nry9YitCe" name="Page-1">
    <mxGraphModel dx="1896" dy="2228" grid="1" gridSize="10" guides="1" tooltips="1" connect="1" arrows="1" fold="1" page="1" pageScale="1" pageWidth="827" pageHeight="1169" math="0" shadow="0">
      <root>
        <mxCell id="0" />
        <mxCell id="1" parent="0" />
        <mxCell id="Lq1DYDACXQDt8Z0r4fvl-88" value="" style="rounded=0;whiteSpace=wrap;html=1;sketch=0;fontSize=18;" vertex="1" parent="1">
          <mxGeometry x="290" y="-702.5" width="140" height="65" as="geometry" />
        </mxCell>
        <mxCell id="Lq1DYDACXQDt8Z0r4fvl-21" value="&lt;b&gt;&lt;font style=&quot;font-size: 18px&quot;&gt;Libras&lt;/font&gt;&lt;/b&gt;" style="rounded=0;whiteSpace=wrap;html=1;sketch=0;" vertex="1" parent="1">
          <mxGeometry x="10" y="-727.5" width="170" height="90" as="geometry" />
        </mxCell>
        <mxCell id="Lq1DYDACXQDt8Z0r4fvl-42" value="Alfabeto" style="rounded=0;whiteSpace=wrap;html=1;sketch=0;fontSize=18;" vertex="1" parent="1">
          <mxGeometry x="200" y="-880" width="120" height="60" as="geometry" />
        </mxCell>
        <mxCell id="Lq1DYDACXQDt8Z0r4fvl-43" value="NÃºmeros" style="rounded=0;whiteSpace=wrap;html=1;sketch=0;fontSize=18;" vertex="1" parent="1">
          <mxGeometry x="200" y="-1010" width="120" height="60" as="geometry" />
        </mxCell>
        <mxCell id="Lq1DYDACXQDt8Z0r4fvl-44" value="Dias da Semana" style="rounded=0;whiteSpace=wrap;html=1;sketch=0;fontSize=18;" vertex="1" parent="1">
          <mxGeometry x="200" y="-1150" width="120" height="60" as="geometry" />
        </mxCell>
        <mxCell id="Lq1DYDACXQDt8Z0r4fvl-45" value="Tempo" style="rounded=0;whiteSpace=wrap;html=1;sketch=0;fontSize=18;" vertex="1" parent="1">
          <mxGeometry x="200" y="-540" width="120" height="60" as="geometry" />
        </mxCell>
        <mxCell id="Lq1DYDACXQDt8Z0r4fvl-46" value="Cores" style="rounded=0;whiteSpace=wrap;html=1;sketch=0;fontSize=18;" vertex="1" parent="1">
          <mxGeometry x="200" y="-430" width="120" height="60" as="geometry" />
        </mxCell>
        <mxCell id="Lq1DYDACXQDt8Z0r4fvl-47" value="Perguntas" style="rounded=0;whiteSpace=wrap;html=1;sketch=0;fontSize=18;" vertex="1" parent="1">
          <mxGeometry x="200" y="-330" width="120" height="60" as="geometry" />
        </mxCell>
        <mxCell id="Lq1DYDACXQDt8Z0r4fvl-60" value="" style="endArrow=none;html=1;rounded=1;sketch=0;fontSize=18;curved=0;exitX=0.565;exitY=-0.015;exitDx=0;exitDy=0;exitPerimeter=0;" edge="1" parent="1" source="Lq1DYDACXQDt8Z0r4fvl-21">
          <mxGeometry width="50" height="50" relative="1" as="geometry">
            <mxPoint x="230" y="-740" as="sourcePoint" />
            <mxPoint x="106" y="-1120" as="targetPoint" />
          </mxGeometry>
        </mxCell>
        <mxCell id="Lq1DYDACXQDt8Z0r4fvl-61" value="" style="endArrow=none;html=1;rounded=1;sketch=0;fontSize=18;curved=0;entryX=0.584;entryY=1.015;entryDx=0;entryDy=0;entryPerimeter=0;" edge="1" parent="1" target="Lq1DYDACXQDt8Z0r4fvl-21">
          <mxGeometry width="50" height="50" relative="1" as="geometry">
            <mxPoint x="110" y="-280" as="sourcePoint" />
            <mxPoint x="110" y="-600" as="targetPoint" />
          </mxGeometry>
        </mxCell>
        <mxCell id="Lq1DYDACXQDt8Z0r4fvl-62" value="" style="endArrow=none;html=1;rounded=1;sketch=0;fontSize=18;curved=0;exitX=0;exitY=0.5;exitDx=0;exitDy=0;" edge="1" parent="1" source="Lq1DYDACXQDt8Z0r4fvl-44">
          <mxGeometry width="50" height="50" relative="1" as="geometry">
            <mxPoint x="380" y="-640" as="sourcePoint" />
            <mxPoint x="110" y="-1120" as="targetPoint" />
          </mxGeometry>
        </mxCell>
        <mxCell id="Lq1DYDACXQDt8Z0r4fvl-63" value="" style="endArrow=none;html=1;rounded=1;sketch=0;fontSize=18;curved=0;exitX=0;exitY=0.5;exitDx=0;exitDy=0;" edge="1" parent="1" source="Lq1DYDACXQDt8Z0r4fvl-43">
          <mxGeometry width="50" height="50" relative="1" as="geometry">
            <mxPoint x="380" y="-640" as="sourcePoint" />
            <mxPoint x="110" y="-980" as="targetPoint" />
          </mxGeometry>
        </mxCell>
        <mxCell id="Lq1DYDACXQDt8Z0r4fvl-64" value="" style="endArrow=none;html=1;rounded=1;sketch=0;fontSize=18;curved=0;" edge="1" parent="1">
          <mxGeometry width="50" height="50" relative="1" as="geometry">
            <mxPoint x="200" y="-840" as="sourcePoint" />
            <mxPoint x="110" y="-840" as="targetPoint" />
          </mxGeometry>
        </mxCell>
        <mxCell id="Lq1DYDACXQDt8Z0r4fvl-69" value="" style="endArrow=none;html=1;rounded=1;sketch=0;fontSize=18;curved=0;entryX=0;entryY=0.25;entryDx=0;entryDy=0;" edge="1" parent="1" target="Lq1DYDACXQDt8Z0r4fvl-45">
          <mxGeometry width="50" height="50" relative="1" as="geometry">
            <mxPoint x="110" y="-525" as="sourcePoint" />
            <mxPoint x="180" y="-530" as="targetPoint" />
          </mxGeometry>
        </mxCell>
        <mxCell id="Lq1DYDACXQDt8Z0r4fvl-70" value="" style="endArrow=none;html=1;rounded=1;sketch=0;fontSize=18;curved=0;entryX=0;entryY=0.75;entryDx=0;entryDy=0;" edge="1" parent="1" target="Lq1DYDACXQDt8Z0r4fvl-47">
          <mxGeometry width="50" height="50" relative="1" as="geometry">
            <mxPoint x="110" y="-285" as="sourcePoint" />
            <mxPoint x="180" y="-340" as="targetPoint" />
          </mxGeometry>
        </mxCell>
        <mxCell id="Lq1DYDACXQDt8Z0r4fvl-71" value="" style="endArrow=none;html=1;rounded=1;sketch=0;fontSize=18;curved=0;entryX=0;entryY=0.5;entryDx=0;entryDy=0;" edge="1" parent="1" target="Lq1DYDACXQDt8Z0r4fvl-46">
          <mxGeometry width="50" height="50" relative="1" as="geometry">
            <mxPoint x="110" y="-400" as="sourcePoint" />
            <mxPoint x="180" y="-430" as="targetPoint" />
          </mxGeometry>
        </mxCell>
        <mxCell id="Lq1DYDACXQDt8Z0r4fvl-84" value="" style="endArrow=none;html=1;rounded=1;sketch=0;fontSize=18;curved=0;" edge="1" parent="1">
          <mxGeometry width="50" height="50" relative="1" as="geometry">
            <mxPoint x="270" y="-680" as="sourcePoint" />
            <mxPoint x="180" y="-680" as="targetPoint" />
          </mxGeometry>
        </mxCell>
        <mxCell id="Lq1DYDACXQDt8Z0r4fvl-85" value="&#xa;&#xa;&lt;span style=&quot;color: rgb(0, 0, 0); font-family: helvetica; font-size: 18px; font-style: normal; font-weight: 400; letter-spacing: normal; text-align: center; text-indent: 0px; text-transform: none; word-spacing: 0px; background-color: rgb(248, 249, 250); display: inline; float: none;&quot;&gt;Cursos Online&lt;/span&gt;&#xa;&#xa;" style="rounded=0;whiteSpace=wrap;html=1;sketch=0;fontSize=18;" vertex="1" parent="1">
          <mxGeometry x="270" y="-715" width="140" height="65" as="geometry" />
        </mxCell>
      </root>
    </mxGraphModel>
  </diagram>
</mxfile>
